<svg height="24" viewBox="0 0 24 24" width="24" xmlns="http://www.w3.org/2000/svg"><path d="m7.51515152 1h8.96969698c.8367951 0 1.5151515.72298515 1.5151515 1.61483254v18.77222706c0 .8918474-.6783564 1.6148325-1.5151515 1.6148325h-8.96969698c-.83679508 0-1.51515152-.7229851-1.51515152-1.6148325v-18.77222706c0-.89184739.67835644-1.61483254 1.51515152-1.61483254zm.48484848 4v14h8v-14zm4 17c.5522847 0 1-.4477153 1-1s-.4477153-1-1-1-1 .4477153-1 1 .4477153 1 1 1zm-.5454545-19.36363636c-.1506232 0-.2727273.12210416-.2727273.27272727s.1221041.27272727.2727273.27272727h1.090909c.1506232 0 .2727273-.12210416.2727273-.27272727s-.1221041-.27272727-.2727273-.27272727z" fill="#aaa" fill-rule="evenodd" transform=""/></svg>