<svg xmlns="http://www.w3.org/2000/svg" width="44" height="44" viewBox="0 0 44 44">
    <path fill="#999" fill-rule="nonzero" d="M22 2c11.048 0 20 8.954 20 20 0 11.04-8.95 20-20 20-11.046 0-20-8.96-20-20C2 10.954 10.954 2 22 2zm-.004 10.864h.001c1.102 0 5.298-.11 5.302-3.724 0-2.095-2.15-3.61-6.089-3.65-.56.027-1.563.086-2.111.166-2.086.538-1.739 2.35.12 2.35 2.2 0 1.994 4.401-.21 4.401-1.254 0-.161-2.269-1.574-2.269-1.416 0-1.262 1.133-1.262 2.412 0 1.276-.471 2.125-1.569 2.125-1.104 0-1.415-.992-1.415-2.268 0-1.275 2.514-2.844 2.514-3.977 0-1.086-1.874-.816-3.825.47-2.976 2.37-5.604 5.925-6.373 9.796.744 2.23 3.113 3.683 7.295 5.234 1.572.574 3.67 2.671 3.67 5.796v7.241c0 .053.026.068.026.12.052 1.37.163 3.131 1.568 1.648.164-.153.992-1.042 1.157-1.258 1.252-1.707 4.576-2.783 4.576-6.333 0-3.55-4-7.356-6.364-7.356s-3.98-.876-3.98-2.152c0-1.28 6.76-1.248 6.76-3.95 0-2.694.681-4.822 1.783-4.822zm12.586 18.17h-.002c.902 0 2.059-1.564 2.799-3.006.76-1.867.969-3.911.982-6.045-.543-1.875-2.364-2.776-2.364-5.315 0-2.982-1.456-5.453-2.404-6.733-.947-1.275-2.47.202-2.47 2.33 0 1.276.156 4.543-.948 4.543-1.104 0-2.714.57-2.714 1.419 0 .85-.283 5.39 3.499 5.39 2.994 0 1.738 7.417 3.622 7.417z"/>
</svg>
